inDegrees=yes
name=ik_S40_A09_T02
DataType=double
version=3
OpenSimVersion=4.3-2021-08-27-4bc7ad9
endheader
time	pelvis_tilt	pelvis_list	pelvis_rotation	pelvis_tx	pelvis_ty	pelvis_tz	hip_flexion_r	hip_adduction_r	hip_rotation_r	knee_angle_r	knee_angle_r_beta	ankle_angle_r	subtalar_angle_r	mtp_angle_r	hip_flexion_l	hip_adduction_l	hip_rotation_l	knee_angle_l	knee_angle_l_beta	ankle_angle_l	subtalar_angle_l	mtp_angle_l	lumbar_extension	lumbar_bending	lumbar_rotation	arm_flex_r	arm_add_r	arm_rot_r	elbow_flex_r	pro_sup_r	wrist_flex_r	wrist_dev_r	arm_flex_l	arm_add_l	arm_rot_l	elbow_flex_l	pro_sup_l	wrist_flex_l	wrist_dev_l
5.639999999999968	-9.531313431737306	-0.9204264082496171	29.80303781182484	0	0.9399999999999999	0	44.49516790317916	-10.45895760291104	-10.54924143560026	54.28623113916634	0.9474734718771246	0	0	0	44.49516790317916	-10.45895760291104	-10.54924143560026	54.28623113916634	0.9474734718771246	0	0	0	-7.676672876775757	-2.232122394189518	4.941843451523644	67.94726589068731	7.325163480220251	30.42906261873487	24.73046264569472	104.1269035990415	0	0	78.39393717984548	6.294855940575407	10.72730336916892	32.35657090241204	114.4965340952282	0	0
5.659999999999967	-9.53061187501031	-0.8922011618681099	29.77248468554996	0	0.9399999999999999	0	44.49541799921199	-10.45816370407319	-10.54863188761868	54.28646797113722	0.9474776053747905	0	0	0	44.49541799921199	-10.45816370407319	-10.54863188761868	54.28646797113722	0.9474776053747905	0	0	0	-7.662614697576719	-2.206576787535685	4.946810804778796	67.97226210759779	7.383913940615253	30.45147162499584	24.51032832646734	103.9319565035859	0	0	78.43554508483237	6.303610148339684	10.863469398251	32.0751689108488	114.2854727101572	0	0
5.679999999999967	-9.532759020409214	-0.878305042465768	29.75124041754308	0	0.9399999999999999	0	44.49511777895593	-10.45918093936145	-10.54939683235108	54.28618969573065	0.9474727485527185	0	0	0	44.49511777895593	-10.45918093936145	-10.54939683235108	54.28618969573065	0.9474727485527185	0	0	0	-7.65723657724044	-2.196070581105012	4.949952569170571	67.98081134696022	7.428410914874408	30.50461603754719	24.45240294919188	103.9258979214289	0	0	78.46235861446081	6.348971739919792	10.9356154033269	32.01154436365267	114.2960472142294	0	0
5.699999999999966	-9.538172095119201	-0.8721876846158589	29.73977355175969	0	0.9399999999999999	0	44.49605223017927	-10.45730282165079	-10.547574670593	54.28712345349442	0.9474890457001124	0	0	0	44.49605223017927	-10.45730282165079	-10.547574670593	54.28712345349442	0.9474890457001124	0	0	0	-7.661054071052455	-2.181646959274813	4.955652270831372	68.0367505581699	7.439731356369536	30.62516927864881	24.29595011169025	103.6823332321621	0	0	78.49126651230162	6.395619478641133	10.99894614448834	31.71038158048088	114.344149072443	0	0
5.719999999999966	-9.536024763181903	-0.8705860933257131	29.72870181062255	0	0.9399999999999999	0	44.49620674150275	-10.45681617417359	-10.54720009603069	54.2872707461399	0.94749161644174	0	0	0	44.49620674150275	-10.45681617417359	-10.54720009603069	54.2872707461399	0.94749161644174	0	0	0	-7.658728364113295	-2.180421743221559	4.95866635569187	68.02676353781672	7.458039502349666	30.63532537175609	24.29573291678033	103.6738625070819	0	0	78.42207575985275	6.393061003632603	11.10713381757535	31.71442002122654	114.558474470307	0	0
5.739999999999966	-9.564343926672731	-0.8548625407903925	29.72797142083984	0	0.9399999999999999	0	44.49624067228383	-10.45671311304557	-10.54711977945538	54.28730417336882	0.9474921998569444	0	0	0	44.49624067228383	-10.45671311304557	-10.54711977945538	54.28730417336882	0.9474921998569444	0	0	0	-7.675845889361161	-2.151437695598824	4.955280083773625	68.06837739066683	7.428908995427051	30.71101452562269	24.29254445466596	103.6729838626863	0	0	78.34541849112935	6.340754023083528	11.17936170333501	31.73332522369888	114.5479382778137	0	0
5.759999999999965	-9.570134678999946	-0.84315434216644	29.6999843667097	0	0.9399999999999999	0	44.49637814450956	-10.45628203939426	-10.54678743162	54.28743566192938	0.9474944947652549	0	0	0	44.49637814450956	-10.45628203939426	-10.54678743162	54.28743566192938	0.9474944947652549	0	0	0	-7.675485394790556	-2.137015426044642	4.955900825965604	68.11173840786145	7.502311486744794	30.61522888640587	24.23284283989543	103.6919432583831	0	0	78.17540214487514	6.277579027969463	11.22580715722836	31.94603225518854	114.2733949093894	0	0
5.779999999999965	-9.574390040045698	-0.8441328470125282	29.68339049114597	0	0.9399999999999999	0	44.4971236683667	-10.45396133599785	-10.54499312731501	54.28814481361062	0.9475068717969887	0	0	0	44.4971236683667	-10.45396133599785	-10.54499312731501	54.28814481361062	0.9475068717969887	0	0	0	-7.680786222067482	-2.13011598060469	4.957976599533797	68.14700664652894	7.501687020719061	30.55417272639449	24.29515718351588	103.6909412440842	0	0	78.10039880456317	6.258030748943688	11.19062997213956	32.02115923723493	114.2417418644949	0	0
5.799999999999964	-9.573193510646716	-0.8550142756622967	29.67901661297413	0	0.9399999999999999	0	44.49775148705496	-10.45194058984774	-10.54345474712636	54.28873874637377	0.947517237879241	0	0	0	44.49775148705496	-10.45194058984774	-10.54345474712636	54.28873874637377	0.947517237879241	0	0	0	-7.686265295997645	-2.134154807139628	4.949743227631346	68.19861050717208	7.529575718291841	30.46820732855023	24.27196934883825	103.7445917334337	0	0	78.05130102194364	6.170621832689277	11.23457091647438	32.17618840952563	114.3831142385218	0	0
5.819999999999964	-9.576869864078631	-0.8733160278746387	29.64143448207434	0	0.9399999999999999	0	44.49793013082056	-10.45138083581825	-10.54302253116343	54.28890868588581	0.9475202038832553	0	0	0	44.49793013082056	-10.45138083581825	-10.54302253116343	54.28890868588581	0.9475202038832553	0	0	0	-7.698700619169213	-2.149762190891482	4.97269473513924	68.2538429098025	7.536722270417587	30.39943295649685	24.27686195206136	103.8200914895392	0	0	77.87446569928169	6.043817733953241	11.79515270910842	32.31754033050038	114.1764020279342	0	0
5.839999999999963	-9.569980571521119	-0.9034673114872646	29.61216089207513	0	0.9399999999999999	0	44.49806161209961	-10.45098365409254	-10.54271199792654	54.28903801236913	0.9475224610561994	0	0	0	44.49806161209961	-10.45098365409254	-10.54271199792654	54.28903801236913	0.9475224610561994	0	0	0	-7.708205280736637	-2.177094986514751	4.962499416049737	68.30249705244229	7.589095255706428	30.33175146094108	24.29018294896877	103.8132420064592	0	0	77.91544398470661	5.982244278060074	11.8446222978385	32.30353199533318	114.8950303670164	0	0
5.859999999999963	-9.575063447005057	-0.9008222246181908	29.53902832019277	0	0.9399999999999999	0	44.49822580702317	-10.45047015508195	-10.54231514723643	54.2891943021821	0.9475251888280229	0	0	0	44.49822580702317	-10.45047015508195	-10.54231514723643	54.2891943021821	0.9475251888280229	0	0	0	-7.710959564550315	-2.178319166428456	5.020304510145399	68.32980629432146	7.564748589418445	30.3740820483247	24.28495276729719	103.7783287159388	0	0	77.50145153303619	5.958008410586609	12.68881390742702	32.5409984595338	114.9301156635497	0	0
5.879999999999963	-9.570240301242968	-0.9079668986598247	29.48044877894443	0	0.9399999999999999	0	44.49837073637316	-10.45001863123439	-10.54196570703773	54.28933267827839	0.9475276039465094	0	0	0	44.49837073637316	-10.45001863123439	-10.54196570703773	54.28933267827839	0.9475276039465094	0	0	0	-7.710691184498599	-2.185937132198286	5.02410960300571	68.34570402441706	7.601930888482938	30.40135297920511	24.30368237507956	103.759736835285	0	0	77.24533651891625	5.818703550754996	13.11296402821843	32.781473594969	115.1420828249234	0	0
5.899999999999962	-9.570766276860164	-0.9196524236654099	29.42818073882783	0	0.9399999999999999	0	44.49852423817044	-10.44954103337443	-10.5415958796841	54.28947933844665	0.9475301636493271	0	0	0	44.49852423817044	-10.44954103337443	-10.5415958796841	54.28947933844665	0.9475301636493271	0	0	0	-7.717215415640074	-2.195474075182404	5.031768875859837	68.4042477897715	7.626558758995992	30.43403650222919	24.27922085047673	103.7294658326665	0	0	77.0346062344079	5.712101505330948	13.43351814179528	33.06825343800651	115.3066548570446	0	0
5.919999999999962	-9.580377547071892	-0.9324153123290867	29.39487441888047	0	0.9399999999999999	0	44.49862522213198	-10.44922894437279	-10.54135363014356	54.289576364654	0.947531857076106	0	0	0	44.49862522213198	-10.44922894437279	-10.54135363014356	54.289576364654	0.947531857076106	0	0	0	-7.731962305792434	-2.203312027444187	5.048334831895883	68.51595307455854	7.623146183670934	30.42162902567469	24.24508530692696	103.7149719380897	0	0	76.95457533263149	5.67167440672489	13.62574182757498	33.29544856758139	115.5715326325769	0	0
5.939999999999961	-9.592100217784653	-0.952836352294815	29.35872276695636	0	0.9399999999999999	0	44.49875106743715	-10.44883868494734	-10.54105100728631	54.2896967976628	0.9475339590286376	0	0	0	44.49875106743715	-10.44883868494734	-10.54105100728631	54.2896967976628	0.9475339590286376	0	0	0	-7.752506491019321	-2.215741325085068	5.058719202411482	68.71294600147621	7.660698866013379	30.319097088845	24.17610337768853	103.7269300776597	0	0	76.90330232281389	5.652173838299134	13.72429018705798	33.57053440511418	115.8855879802367	0	0
